<?xml version="1.0" encoding="utf-8"?>
<!-- Generator: Adobe Illustrator 27.2.0, SVG Export Plug-In . SVG Version: 6.00 Build 0)  -->
<svg version="1.1" id="Livello_1" xmlns="http://www.w3.org/2000/svg" xmlns:xlink="http://www.w3.org/1999/xlink" x="0px" y="0px"
	 viewBox="0 0 501.78 91.56" style="enable-background:new 0 0 501.78 91.56;" xml:space="preserve">
<style type="text/css">
	.st0{fill:#1D1D1B;}
	.st1{fill:#B3C50A;}
</style>
<g>
	<path class="st0" d="M144.98,15.91c0,3.23-0.03,4.08-0.24,5c-0.31,1.39-1.09,3.81-5.41,3.81c-3.67,0-5.17-2.18-5.54-4.39
		c-0.1-0.68-0.24-1.7-0.24-7.68c0-6.32,0.1-7.07,0.27-8.12c0.2-1.05,0.82-4.52,5.75-4.52c1.97,0,4.42,0.85,5.03,3.47
		c0.27,1.16,0.27,2.58,0.24,4.45h-2.79v-1.8c0-1.63-0.03-3.6-2.48-3.6s-2.75,2.04-2.86,2.96c-0.2,1.73-0.2,5.37-0.2,7.21
		c0,1.46,0.07,6.32,0.2,7.28c0.1,0.44,0.41,2.24,2.79,2.24c2.14,0,2.45-1.84,2.55-2.28c0.14-0.61,0.14-1.16,0.14-4.01h2.79V15.91z"
		/>
	<path class="st0" d="M157.39,19.11c0,1.16,0,2.01-0.31,2.89c-0.99,2.69-3.64,2.69-4.49,2.69c-1.02,0-3.37-0.14-4.35-2.62
		c-0.31-0.82-0.44-1.16-0.44-7.99c0-3.64,0.31-6.97,4.69-6.97c1.09,0,4.22,0,4.76,3.71c0.14,0.85,0.14,1.33,0.14,5.61h-6.83
		c0,1.33-0.03,3.06,0.03,3.67c0.07,0.65,0.2,2.41,2.14,2.41s2.14-1.67,2.14-3.4H157.39L157.39,19.11z M154.84,14.21V12.1
		c-0.03-0.92-0.07-2.92-2.11-2.92c-1.39,0-1.8,0.88-1.97,1.43c-0.2,0.65-0.2,1.19-0.2,3.6H154.84z"/>
	<path class="st0" d="M170.21,24.38h-2.75V13.3c0-2.45,0-4.08-2.01-4.08c-2.28,0-2.28,2.31-2.28,4.18v10.98h-2.72v-17h2.58v1.56
		c0.51-0.61,1.56-1.87,3.64-1.87c3.54,0,3.54,2.99,3.54,5.34C170.21,12.41,170.21,24.38,170.21,24.38z"/>
	<path class="st0" d="M179.56,9.42h-2.48v10.81c0,1.09,0.1,2.18,1.56,2.18c0.44,0,0.68-0.07,0.95-0.14v2.21
		c-0.37,0.1-0.78,0.2-1.5,0.2c-2.38,0-3.13-0.82-3.47-1.6s-0.34-1.12-0.34-4.25V9.41h-2.04V7.34h2.11V2.79h2.72v4.56h2.48
		L179.56,9.42L179.56,9.42z"/>
	<path class="st0" d="M184.46,24.38h-2.79v-17h2.62v3.2c0.61-1.33,1.67-3.64,4.59-3.47v2.82c-1.22,0-2.72,0-3.67,1.39
		c-0.54,0.82-0.75,1.77-0.75,4.93v8.12V24.38z"/>
	<path class="st0" d="M199.48,21.66c-0.27,1.09-0.95,3.03-4.49,3.03c-1.67,0-3.3-0.54-4.08-1.97c-0.65-1.16-0.68-2.14-0.68-6.39
		c0-2.35,0.07-5.03,0.37-6.22c0.27-1.02,1.02-3.03,4.49-3.03c2.07,0,3.47,0.75,4.18,2.21c0.58,1.19,0.58,1.7,0.58,6.8
		c0,1.29-0.07,4.42-0.37,5.58V21.66z M196.96,11.73c-0.03-0.99-0.24-2.41-1.84-2.41c-2.04,0-2.04,1.67-2.04,5.17
		c0,0.51,0,3.81,0.03,4.96c0.03,1.5,0.07,3.13,1.84,3.13c2.04,0,2.04-1.8,2.04-6.53C196.99,14.62,196.99,12.62,196.96,11.73z"/>
	<path class="st0" d="M222.43,15.91c0,3.23-0.03,4.08-0.24,5c-0.31,1.39-1.09,3.81-5.41,3.81c-3.67,0-5.17-2.18-5.54-4.39
		c-0.1-0.68-0.24-1.7-0.24-7.68c0-6.32,0.1-7.07,0.27-8.12c0.2-1.05,0.82-4.52,5.75-4.52c1.97,0,4.42,0.85,5.03,3.47
		c0.27,1.16,0.27,2.58,0.24,4.45h-2.79v-1.8c0-1.63-0.03-3.6-2.48-3.6s-2.75,2.04-2.86,2.96c-0.2,1.73-0.2,5.37-0.2,7.21
		c0,1.46,0.07,6.32,0.2,7.28c0.1,0.44,0.41,2.24,2.79,2.24c2.14,0,2.45-1.84,2.55-2.28c0.14-0.61,0.14-1.16,0.14-4.01h2.79V15.91z"
		/>
	<path class="st0" d="M228.21,4.39h-2.69V0.88h2.69V4.39L228.21,4.39z M228.21,24.38h-2.69V7.34h2.69V24.38L228.21,24.38z"/>
	<path class="st0" d="M241.3,24.38h-2.75V13.3c0-2.45,0-4.08-2.01-4.08c-2.28,0-2.28,2.31-2.28,4.18v10.98h-2.72v-17h2.58v1.56
		c0.51-0.61,1.56-1.87,3.64-1.87c3.54,0,3.54,2.99,3.54,5.34C241.3,12.41,241.3,24.38,241.3,24.38z"/>
	<path class="st0" d="M253.61,21.66c-0.27,1.09-0.95,3.03-4.49,3.03c-1.67,0-3.3-0.54-4.08-1.97c-0.65-1.16-0.68-2.14-0.68-6.39
		c0-2.35,0.07-5.03,0.37-6.22c0.27-1.02,1.02-3.03,4.49-3.03c2.07,0,3.47,0.75,4.18,2.21c0.58,1.19,0.58,1.7,0.58,6.8
		c0,1.29-0.07,4.42-0.37,5.58V21.66z M251.09,11.73c-0.03-0.99-0.24-2.41-1.84-2.41c-2.04,0-2.04,1.67-2.04,5.17
		c0,0.51,0,3.81,0.03,4.96c0.03,1.5,0.07,3.13,1.84,3.13c2.04,0,2.04-1.8,2.04-6.53C251.12,14.62,251.12,12.62,251.09,11.73z"/>
	<path class="st0" d="M260.38,24.38h-2.69V9.42h-2.01V7.35h2.01v-1.8c0-2.24,0-5.27,4.01-5.27c0.71,0,1.05,0.1,1.43,0.2v2.35
		c-0.31-0.1-0.65-0.2-1.09-0.2c-1.67,0-1.67,1.29-1.67,3.06v1.67h2.75v2.07h-2.75v14.96L260.38,24.38z"/>
	<path class="st0" d="M267.82,4.39h-2.69V0.88h2.69V4.39L267.82,4.39z M267.82,24.38h-2.69V7.34h2.69V24.38L267.82,24.38z"/>
	<path class="st0" d="M273.88,24.38h-2.75V0.37h2.75V24.38L273.88,24.38z"/>
	<path class="st0" d="M286.15,21.66c-0.27,1.09-0.95,3.03-4.49,3.03c-1.67,0-3.3-0.54-4.08-1.97c-0.65-1.16-0.68-2.14-0.68-6.39
		c0-2.35,0.07-5.03,0.37-6.22c0.27-1.02,1.02-3.03,4.49-3.03c2.07,0,3.47,0.75,4.18,2.21c0.58,1.19,0.58,1.7,0.58,6.8
		c0,1.29-0.07,4.42-0.37,5.58V21.66z M283.63,11.73c-0.03-0.99-0.24-2.41-1.84-2.41c-2.04,0-2.04,1.67-2.04,5.17
		c0,0.51,0,3.81,0.03,4.96c0.03,1.5,0.07,3.13,1.84,3.13c2.04,0,2.04-1.8,2.04-6.53C283.66,14.62,283.66,12.62,283.63,11.73z"/>
	<path class="st1" d="M133.27,49c0-8.29,4.37-13.02,12.36-13.02s12.36,4.74,12.36,13.02v26.94c0,2.89-0.52,5.33-1.55,7.25
		c0.37,0.96,0.96,1.11,2.29,1.11h0.74v7.25h-1.11c-3.63,0-5.92-1.33-7.03-3.55c-1.63,0.59-3.55,0.96-5.7,0.96
		c-7.99,0-12.36-4.74-12.36-13.03V48.99V49z M141.41,76.46c0,3.7,1.63,5.11,4.22,5.11s4.22-1.41,4.22-5.11V48.49
		c0-3.7-1.63-5.11-4.22-5.11s-4.22,1.41-4.22,5.11V76.46z"/>
	<path class="st1" d="M172.49,36.57v39.96c0,3.7,1.63,5.03,4.22,5.03s4.22-1.33,4.22-5.03V36.57h7.7v39.44
		c0,8.29-4.14,13.02-12.14,13.02s-12.14-4.74-12.14-13.02V36.57C164.35,36.57,172.49,36.57,172.49,36.57z"/>
	<path class="st1" d="M195.65,36.57h8.14v51.8h-8.14C195.65,88.37,195.65,36.57,195.65,36.57z"/>
	<path class="st1" d="M218.59,50.85h-0.15v37.52h-7.33v-51.8h10.21l8.21,31.01h0.15V36.57h7.25v51.8h-8.36L218.59,50.85
		L218.59,50.85z"/>
	<path class="st1" d="M241.9,36.57h25.16v7.4h-8.51v44.4h-8.14v-44.4h-8.51V36.57z"/>
	<path class="st1" d="M272.09,36.57h8.14v51.8h-8.14C272.09,88.37,272.09,36.57,272.09,36.57z"/>
	<path class="st1" d="M295.03,50.85h-0.15v37.52h-7.33v-51.8h10.21l8.21,31.01h0.15V36.57h7.25v51.8h-8.36L295.03,50.85
		L295.03,50.85z"/>
	<path class="st1" d="M320.04,49c0-8.29,4.37-13.02,12.36-13.02s12.36,4.74,12.36,13.02v26.94c0,8.29-4.37,13.03-12.36,13.03
		s-12.36-4.74-12.36-13.03V49z M328.18,76.46c0,3.7,1.63,5.11,4.22,5.11s4.22-1.41,4.22-5.11V48.49c0-3.7-1.63-5.11-4.22-5.11
		s-4.22,1.41-4.22,5.11V76.46z"/>
	<path class="st1" d="M375.4,35.98c7.92,0,11.99,4.74,11.99,13.02v1.63h-7.7v-2.15c0-3.7-1.48-5.11-4.07-5.11s-4.07,1.41-4.07,5.11
		s1.63,6.59,6.96,11.25c6.81,5.99,8.95,10.29,8.95,16.21c0,8.29-4.14,13.03-12.14,13.03s-12.14-4.74-12.14-13.03v-3.18h7.7v3.7
		c0,3.7,1.63,5.03,4.22,5.03s4.22-1.33,4.22-5.03s-1.63-6.59-6.96-11.25c-6.81-5.99-8.96-10.29-8.96-16.21
		c0-8.29,4.07-13.02,11.99-13.02H375.4z"/>
	<path class="st1" d="M401.74,58.4h11.17v7.4h-11.17v15.17h14.06v7.4h-22.2v-51.8h22.2v7.4h-14.06
		C401.74,43.97,401.74,58.4,401.74,58.4z"/>
	<path class="st1" d="M422.31,36.57h8.14v44.4h13.4v7.4h-21.54C422.31,88.37,422.31,36.57,422.31,36.57z"/>
	<path class="st1" d="M448.87,36.57h8.14v44.4h13.4v7.4h-21.54C448.87,88.37,448.87,36.57,448.87,36.57z"/>
	<path class="st1" d="M501.78,88.38h-8.21l-1.41-9.4h-9.99l-1.41,9.4h-7.47l8.29-51.8h11.92l8.29,51.8H501.78z M483.2,71.95h7.84
		l-3.85-26.2h-0.15l-3.85,26.2H483.2z"/>
</g>
<g>
	<path class="st1" d="M40.2,55.59c1.03-0.8,1.47-1.09,3.55-2.38c1.98-1.22,4.59-2.71,5.74-3.86s0.7-2.27,1.28-3.53
		c0.57-1.26,0.67-2.08,2.39-3.34s5.42-2.86,6.91-3.55s2.3-2.3,4.94-3.56c2.64-1.26,6.43-1.26,6.43-1.26s5.97-0.23,7.35-1.15
		c1.38-0.92,7.01-3.1,9.88-4.48c2.87-1.38,8.04-2.87,10.22-3.68c2.01-0.74,5.86-2.44,8.97-3.07V0.33h-79.1L0,44.48l28.76,44.15
		h20.76c0.13-0.59,0.38-1.97,1.01-2.6c0.69-0.69,1.03-1.15,2.99-1.72c1.95-0.57,3.9-0.11,7.24-0.92c3.33-0.8,5.74-2.18,7.69-3.56
		c1.95-1.38,3.9-2.64,5.63-3.1c1.72-0.46,4.13-0.8,6.09-1.84c1.95-1.03,5.29-2.5,7.58-3.1c3.61-0.94,3.4-3.59,3.4-3.59
		s-3.18-0.07-6.32-2.15c-0.52-0.34-0.02,1.63,0.86,2.29c1.16,0.88,0.71,1.23-0.78,0.78c-0.98-0.3-1.62-0.64-2.45-1.27
		c-0.95-0.73-1.46-1.52-1.73-1.63c0.02,0.88-0.24,2.8-0.74,1.16c-0.45-1.46-1.2-2.05-1.44-2.25c-0.98-0.83-1.69-0.11-3.03,0.28
		c-0.66,0.19-1.12-0.53-1.86-0.58c0,0,0.49,1,0.47,1.92c-0.01,0.52-0.2,0.64-0.56,0.06c-1.67-2.62-6.2-2.51-7.53-2.86
		c-2.18-0.57-1.96,0.38-2.99,0.61c-1.03,0.23-2.07,1.26-2.87,1.49c-0.8,0.23-2.76,0.69-4.49,1.38s-2.63,1.12-5.27,1.69
		s-3.57-1.35-3.68-2.16c-0.11-0.8,0.57-1.15,0.69-1.84c0.11-0.69,0.69-1.38,1.26-1.15c0.57,0.23,0.69-0.23,1.26-0.57
		s1.95-1.49,3.45-2.3s0.23-1.03-0.92-0.8c-1.15,0.23-3.9,1.72-4.71,1.84s-2.76,0.23-4.59-0.34c-1.84-0.57-2.18-1.84-3.33-3.22
		S39.16,56.4,40.2,55.59L40.2,55.59z"/>
	<path class="st1" d="M107.86,78.96c-0.4,0.49-0.95,0.82-1.5,1.1c-1.15,0.57-2.07,0.57-4.82,0.57s-4.71,0.23-5.97,0.34
		c-1.26,0.11-4.36,1.49-6.55,1.84c-2.18,0.34-12.98,3.1-13.78,3.22c-0.8,0.11-4.48,1.26-5.51,2.07c-0.17,0.14-0.33,0.32-0.48,0.53
		h38.62L107.86,78.96L107.86,78.96z"/>
</g>
</svg>
