<?xml version="1.0" encoding="UTF-8"?><svg id="Livello_1" xmlns="http://www.w3.org/2000/svg" viewBox="0 0 501.78 91.56"><defs><style>.cls-1{fill:#fff;}</style></defs><g><path class="cls-1" d="m144.98,15.91c0,3.23-.03,4.08-.24,5-.31,1.39-1.09,3.81-5.41,3.81-3.67,0-5.17-2.18-5.54-4.39-.1-.68-.24-1.7-.24-7.68,0-6.32.1-7.07.27-8.12.2-1.05.82-4.52,5.75-4.52,1.97,0,4.42.85,5.03,3.47.27,1.16.27,2.58.24,4.45h-2.79v-1.8c0-1.63-.03-3.6-2.48-3.6s-2.75,2.04-2.86,2.96c-.2,1.73-.2,5.37-.2,7.21,0,1.46.07,6.32.2,7.28.1.44.41,2.24,2.79,2.24,2.14,0,2.45-1.84,2.55-2.28.14-.61.14-1.16.14-4.01h2.79Z"/><path class="cls-1" d="m157.39,19.11c0,1.16,0,2.01-.31,2.89-.99,2.69-3.64,2.69-4.49,2.69-1.02,0-3.37-.14-4.35-2.62-.31-.82-.44-1.16-.44-7.99,0-3.64.31-6.97,4.69-6.97,1.09,0,4.22,0,4.76,3.71.14.85.14,1.33.14,5.61h-6.83c0,1.33-.03,3.06.03,3.67.07.65.2,2.41,2.14,2.41s2.14-1.67,2.14-3.4h2.52Zm-2.55-4.9v-2.11c-.03-.92-.07-2.92-2.11-2.92-1.39,0-1.8.88-1.97,1.43-.2.65-.2,1.19-.2,3.6h4.28Z"/><path class="cls-1" d="m170.21,24.38h-2.75v-11.08c0-2.45,0-4.08-2.01-4.08-2.28,0-2.28,2.31-2.28,4.18v10.98h-2.72V7.38h2.58v1.56c.51-.61,1.56-1.87,3.64-1.87,3.54,0,3.54,2.99,3.54,5.34v11.97Z"/><path class="cls-1" d="m179.56,9.42h-2.48v10.81c0,1.09.1,2.18,1.56,2.18.44,0,.68-.07.95-.14v2.21c-.37.1-.78.2-1.5.2-2.38,0-3.13-.82-3.47-1.6-.34-.78-.34-1.12-.34-4.25v-9.42h-2.04v-2.07h2.11V2.79h2.72v4.56h2.48v2.07Z"/><path class="cls-1" d="m184.46,24.38h-2.79V7.38h2.62v3.2c.61-1.33,1.67-3.64,4.59-3.47v2.82c-1.22,0-2.72,0-3.67,1.39-.54.82-.75,1.77-.75,4.93v8.12Z"/><path class="cls-1" d="m199.48,21.66c-.27,1.09-.95,3.03-4.49,3.03-1.67,0-3.3-.54-4.08-1.97-.65-1.16-.68-2.14-.68-6.39,0-2.35.07-5.03.37-6.22.27-1.02,1.02-3.03,4.49-3.03,2.07,0,3.47.75,4.18,2.21.58,1.19.58,1.7.58,6.8,0,1.29-.07,4.42-.37,5.58Zm-2.52-9.93c-.03-.99-.24-2.41-1.84-2.41-2.04,0-2.04,1.67-2.04,5.17,0,.51,0,3.81.03,4.96.03,1.5.07,3.13,1.84,3.13,2.04,0,2.04-1.8,2.04-6.53,0-1.43,0-3.43-.03-4.32Z"/><path class="cls-1" d="m222.43,15.91c0,3.23-.03,4.08-.24,5-.31,1.39-1.09,3.81-5.41,3.81-3.67,0-5.17-2.18-5.54-4.39-.1-.68-.24-1.7-.24-7.68,0-6.32.1-7.07.27-8.12.2-1.05.82-4.52,5.75-4.52,1.97,0,4.42.85,5.03,3.47.27,1.16.27,2.58.24,4.45h-2.79v-1.8c0-1.63-.03-3.6-2.48-3.6s-2.75,2.04-2.86,2.96c-.2,1.73-.2,5.37-.2,7.21,0,1.46.07,6.32.2,7.28.1.44.41,2.24,2.79,2.24,2.14,0,2.45-1.84,2.55-2.28.14-.61.14-1.16.14-4.01h2.79Z"/><path class="cls-1" d="m228.21,4.39h-2.69V.88h2.69v3.5Zm0,19.99h-2.69V7.34h2.69v17.03Z"/><path class="cls-1" d="m241.3,24.38h-2.75v-11.08c0-2.45,0-4.08-2.01-4.08-2.28,0-2.28,2.31-2.28,4.18v10.98h-2.72V7.38h2.58v1.56c.51-.61,1.56-1.87,3.64-1.87,3.54,0,3.54,2.99,3.54,5.34v11.97Z"/><path class="cls-1" d="m253.61,21.66c-.27,1.09-.95,3.03-4.49,3.03-1.67,0-3.3-.54-4.08-1.97-.65-1.16-.68-2.14-.68-6.39,0-2.35.07-5.03.37-6.22.27-1.02,1.02-3.03,4.49-3.03,2.07,0,3.47.75,4.18,2.21.58,1.19.58,1.7.58,6.8,0,1.29-.07,4.42-.37,5.58Zm-2.52-9.93c-.03-.99-.24-2.41-1.84-2.41-2.04,0-2.04,1.67-2.04,5.17,0,.51,0,3.81.03,4.96.03,1.5.07,3.13,1.84,3.13,2.04,0,2.04-1.8,2.04-6.53,0-1.43,0-3.43-.03-4.32Z"/><path class="cls-1" d="m260.38,24.38h-2.69v-14.96h-2.01v-2.07h2.01v-1.8c0-2.24,0-5.27,4.01-5.27.71,0,1.05.1,1.43.2v2.35c-.31-.1-.65-.2-1.09-.2-1.67,0-1.67,1.29-1.67,3.06v1.67h2.75v2.07h-2.75v14.96Z"/><path class="cls-1" d="m267.82,4.39h-2.69V.88h2.69v3.5Zm0,19.99h-2.69V7.34h2.69v17.03Z"/><path class="cls-1" d="m273.88,24.38h-2.75V.37h2.75v24Z"/><path class="cls-1" d="m286.15,21.66c-.27,1.09-.95,3.03-4.49,3.03-1.67,0-3.3-.54-4.08-1.97-.65-1.16-.68-2.14-.68-6.39,0-2.35.07-5.03.37-6.22.27-1.02,1.02-3.03,4.49-3.03,2.07,0,3.47.75,4.18,2.21.58,1.19.58,1.7.58,6.8,0,1.29-.07,4.42-.37,5.58Zm-2.52-9.93c-.03-.99-.24-2.41-1.84-2.41-2.04,0-2.04,1.67-2.04,5.17,0,.51,0,3.81.03,4.96.03,1.5.07,3.13,1.84,3.13,2.04,0,2.04-1.8,2.04-6.53,0-1.43,0-3.43-.03-4.32Z"/><path class="cls-1" d="m133.27,49c0-8.29,4.37-13.02,12.36-13.02s12.36,4.74,12.36,13.02v26.94c0,2.89-.52,5.33-1.55,7.25.37.96.96,1.11,2.29,1.11h.74v7.25h-1.11c-3.63,0-5.92-1.33-7.03-3.55-1.63.59-3.55.96-5.7.96-7.99,0-12.36-4.74-12.36-13.03v-26.94Zm8.14,27.46c0,3.7,1.63,5.11,4.22,5.11s4.22-1.41,4.22-5.11v-27.97c0-3.7-1.63-5.11-4.22-5.11s-4.22,1.41-4.22,5.11v27.97Z"/><path class="cls-1" d="m172.49,36.57v39.96c0,3.7,1.63,5.03,4.22,5.03s4.22-1.33,4.22-5.03v-39.96h7.7v39.44c0,8.29-4.14,13.02-12.14,13.02s-12.14-4.74-12.14-13.02v-39.44h8.14Z"/><path class="cls-1" d="m195.65,36.57h8.14v51.8h-8.14v-51.8Z"/><path class="cls-1" d="m218.59,50.85h-.15v37.52h-7.33v-51.8h10.21l8.21,31.01h.15v-31.01h7.25v51.8h-8.36l-9.99-37.52Z"/><path class="cls-1" d="m241.9,36.57h25.16v7.4h-8.51v44.4h-8.14v-44.4h-8.51v-7.4Z"/><path class="cls-1" d="m272.09,36.57h8.14v51.8h-8.14v-51.8Z"/><path class="cls-1" d="m295.03,50.85h-.15v37.52h-7.33v-51.8h10.21l8.21,31.01h.15v-31.01h7.25v51.8h-8.36l-9.99-37.52Z"/><path class="cls-1" d="m320.04,49c0-8.29,4.37-13.02,12.36-13.02s12.36,4.74,12.36,13.02v26.94c0,8.29-4.37,13.03-12.36,13.03s-12.36-4.74-12.36-13.03v-26.94Zm8.14,27.46c0,3.7,1.63,5.11,4.22,5.11s4.22-1.41,4.22-5.11v-27.97c0-3.7-1.63-5.11-4.22-5.11s-4.22,1.41-4.22,5.11v27.97Z"/><path class="cls-1" d="m375.4,35.98c7.92,0,11.99,4.74,11.99,13.02v1.63h-7.7v-2.15c0-3.7-1.48-5.11-4.07-5.11s-4.07,1.41-4.07,5.11,1.63,6.59,6.96,11.25c6.81,5.99,8.95,10.29,8.95,16.21,0,8.29-4.14,13.03-12.14,13.03s-12.14-4.74-12.14-13.03v-3.18h7.7v3.7c0,3.7,1.63,5.03,4.22,5.03s4.22-1.33,4.22-5.03-1.63-6.59-6.96-11.25c-6.81-5.99-8.96-10.29-8.96-16.21,0-8.29,4.07-13.02,11.99-13.02Z"/><path class="cls-1" d="m401.74,58.4h11.17v7.4h-11.17v15.17h14.06v7.4h-22.2v-51.8h22.2v7.4h-14.06v14.43Z"/><path class="cls-1" d="m422.31,36.57h8.14v44.4h13.4v7.4h-21.54v-51.8Z"/><path class="cls-1" d="m448.87,36.57h8.14v44.4h13.4v7.4h-21.54v-51.8Z"/><path class="cls-1" d="m501.78,88.38h-8.21l-1.41-9.4h-9.99l-1.41,9.4h-7.47l8.29-51.8h11.92l8.29,51.8Zm-18.58-16.43h7.84l-3.85-26.2h-.15l-3.85,26.2Z"/></g><g><path class="cls-1" d="m40.2,55.59c1.03-.8,1.47-1.09,3.55-2.38,1.98-1.22,4.59-2.71,5.74-3.86s.7-2.27,1.28-3.53c.57-1.26.67-2.08,2.39-3.34,1.72-1.26,5.42-2.86,6.91-3.55,1.49-.69,2.3-2.3,4.94-3.56,2.64-1.26,6.43-1.26,6.43-1.26,0,0,5.97-.23,7.35-1.15,1.38-.92,7.01-3.1,9.88-4.48,2.87-1.38,8.04-2.87,10.22-3.68,2.01-.74,5.86-2.44,8.97-3.07V.33H28.76L0,44.48l28.76,44.15h20.76c.13-.59.38-1.97,1.01-2.6.69-.69,1.03-1.15,2.99-1.72,1.95-.57,3.9-.11,7.24-.92,3.33-.8,5.74-2.18,7.69-3.56,1.95-1.38,3.9-2.64,5.63-3.1,1.72-.46,4.13-.8,6.09-1.84,1.95-1.03,5.29-2.5,7.58-3.1,3.61-.94,3.4-3.59,3.4-3.59,0,0-3.18-.07-6.32-2.15-.52-.34-.02,1.63.86,2.29,1.16.88.71,1.23-.78.78-.98-.3-1.62-.64-2.45-1.27-.95-.73-1.46-1.52-1.73-1.63.02.88-.24,2.8-.74,1.16-.45-1.46-1.2-2.05-1.44-2.25-.98-.83-1.69-.11-3.03.28-.66.19-1.12-.53-1.86-.58,0,0,.49,1,.47,1.92-.01.52-.2.64-.56.06-1.67-2.62-6.2-2.51-7.53-2.86-2.18-.57-1.96.38-2.99.61-1.03.23-2.07,1.26-2.87,1.49-.8.23-2.76.69-4.49,1.38s-2.63,1.12-5.27,1.69c-2.64.57-3.57-1.35-3.68-2.16-.11-.8.57-1.15.69-1.84.11-.69.69-1.38,1.26-1.15.57.23.69-.23,1.26-.57.57-.34,1.95-1.49,3.45-2.3s.23-1.03-.92-.8c-1.15.23-3.9,1.72-4.71,1.84s-2.76.23-4.59-.34c-1.84-.57-2.18-1.84-3.33-3.22-1.15-1.38-.69-2.18.34-2.99Z"/><path class="cls-1" d="m107.86,78.96c-.4.49-.95.82-1.5,1.1-1.15.57-2.07.57-4.82.57s-4.71.23-5.97.34c-1.26.11-4.36,1.49-6.55,1.84-2.18.34-12.98,3.1-13.78,3.22-.8.11-4.48,1.26-5.51,2.07-.17.14-.33.32-.48.53h38.62v-9.67Z"/></g></svg>