<?xml version="1.0" encoding="UTF-8"?><svg id="Livello_1" xmlns="http://www.w3.org/2000/svg" viewBox="0 0 629.06 108.52"><defs><style>.cls-1{fill:#fff;}</style></defs><g><path class="cls-1" d="m126.33,43.85h-3.13l-.85-4.62h-5.58l-.82,4.62h-3.09l5.17-24h2.99l5.3,24Zm-4.49-7.21l-2.35-12.34-2.21,12.34h4.56Z"/><path class="cls-1" d="m130.89,43.85h-2.75v-24h2.75v24Z"/><path class="cls-1" d="m136.91,43.85h-2.75v-24h2.75v24Z"/><path class="cls-1" d="m149.52,38.58c0,1.16,0,2.01-.31,2.89-.99,2.69-3.64,2.69-4.49,2.69-1.02,0-3.37-.14-4.35-2.62-.31-.82-.44-1.16-.44-7.99,0-3.64.31-6.97,4.69-6.97,1.09,0,4.22,0,4.76,3.71.14.85.14,1.33.14,5.61h-6.83c0,1.33-.03,3.06.03,3.67.07.65.2,2.41,2.14,2.41s2.14-1.67,2.14-3.4h2.52Zm-2.55-4.9v-2.11c-.03-.92-.07-2.92-2.11-2.92-1.39,0-1.8.88-1.97,1.43-.2.65-.2,1.19-.2,3.6h4.28Z"/><path class="cls-1" d="m157.82,43.85h-3.09l-3.64-17h2.96l2.24,13.9,2.48-13.9h2.92l-3.88,17Z"/><path class="cls-1" d="m172.57,40.25c0,2.65.1,3.03.82,3.6h-3.33v-2.04c-.37.75-1.19,2.35-3.5,2.35-.78,0-1.46-.17-2.04-.51-1.6-.95-1.77-2.58-1.77-3.84,0-2.75,1.09-3.64,2.86-4.86,2.58-1.73,2.86-1.9,4.28-3.23,0-1.39,0-2.99-2.07-2.99s-2.04,1.43-2.04,2.45c0,.51.03.88.07,1.26h-2.48c-.03-.71-.03-2.55.24-3.4.85-2.48,3.74-2.48,4.49-2.48,1.22,0,2.45.2,3.43,1.26,1.05,1.09,1.05,2,1.05,4.32v8.12Zm-2.69-6.09c-.78.75-.92.85-2.24,1.84-1.22.95-2.14,1.67-2.14,3.64,0,.75,0,2.52,1.84,2.52.51,0,1.02-.17,1.46-.51.99-.75,1.09-1.9,1.09-3.26v-4.22Z"/><path class="cls-1" d="m192.8,43.85h-2.75v-11.12c0-1.5-.03-2.14-.17-2.65-.24-.75-.85-1.43-1.97-1.43-2.18,0-2.18,2.28-2.18,4.04v11.15h-2.75v-11.12c0-2.28,0-4.08-2.11-4.08s-2.21,2.14-2.21,4.11v11.08h-2.75v-17h2.58v1.7c.51-.68,1.53-2.01,3.64-2.01s2.96,1.33,3.33,2.01c.54-.71,1.46-2.01,3.54-2.01.34,0,1.6,0,2.65,1.05,1.16,1.16,1.16,2.41,1.16,5.17v11.08Z"/><path class="cls-1" d="m205.42,38.58c0,1.16,0,2.01-.31,2.89-.99,2.69-3.64,2.69-4.49,2.69-1.02,0-3.37-.14-4.35-2.62-.31-.82-.44-1.16-.44-7.99,0-3.64.31-6.97,4.69-6.97,1.09,0,4.22,0,4.76,3.71.14.85.14,1.33.14,5.61h-6.83c0,1.33-.03,3.06.03,3.67.07.65.2,2.41,2.14,2.41s2.14-1.67,2.14-3.4h2.52Zm-2.55-4.9v-2.11c-.03-.92-.07-2.92-2.11-2.92-1.39,0-1.8.88-1.97,1.43-.2.65-.2,1.19-.2,3.6h4.28Z"/><path class="cls-1" d="m218.23,43.85h-2.75v-11.08c0-2.45,0-4.08-2.01-4.08-2.28,0-2.28,2.31-2.28,4.18v10.98h-2.72v-17h2.58v1.56c.51-.61,1.56-1.87,3.64-1.87,3.54,0,3.54,2.99,3.54,5.34v11.97Z"/><path class="cls-1" d="m227.58,28.89h-2.48v10.81c0,1.09.1,2.18,1.56,2.18.44,0,.68-.07.95-.14v2.21c-.37.1-.78.2-1.5.2-2.38,0-3.13-.82-3.47-1.6-.34-.78-.34-1.12-.34-4.25v-9.42h-2.04v-2.07h2.11v-4.56h2.72v4.56h2.48v2.07Z"/><path class="cls-1" d="m238.67,41.13c-.27,1.09-.95,3.03-4.49,3.03-1.67,0-3.3-.54-4.08-1.97-.65-1.16-.68-2.14-.68-6.39,0-2.35.07-5.03.37-6.22.27-1.02,1.02-3.03,4.49-3.03,2.07,0,3.47.75,4.18,2.21.58,1.19.58,1.7.58,6.8,0,1.29-.07,4.42-.37,5.58Zm-2.52-9.93c-.03-.99-.24-2.41-1.84-2.41-2.04,0-2.04,1.67-2.04,5.17,0,.51,0,3.81.03,4.96.03,1.5.07,3.13,1.84,3.13,2.04,0,2.04-1.8,2.04-6.53,0-1.43,0-3.43-.03-4.32Z"/><path class="cls-1" d="m113.66,56.05h8.14v51.8h-8.14v-51.8Z"/><path class="cls-1" d="m138.3,56.05h25.16v7.4h-8.51v44.4h-8.14v-44.4h-8.51v-7.4Z"/><path class="cls-1" d="m191.28,107.85h-8.21l-1.41-9.4h-9.99l-1.41,9.4h-7.47l8.29-51.8h11.92l8.29,51.8Zm-18.58-16.43h7.84l-3.85-26.2h-.15l-3.85,26.2Z"/><path class="cls-1" d="m212.82,107.85c-.44-1.33-.74-2.15-.74-6.36v-8.14c0-4.81-1.63-6.59-5.33-6.59h-2.81v21.09h-8.14v-51.8h12.28c8.44,0,12.06,3.92,12.06,11.92v4.07c0,5.33-1.7,8.73-5.33,10.43v.15c4.07,1.7,5.4,5.55,5.4,10.95v7.99c0,2.52.07,4.37.89,6.29h-8.29Zm-8.88-44.4v15.91h3.18c3.03,0,4.88-1.33,4.88-5.48v-5.11c0-3.7-1.26-5.33-4.14-5.33h-3.92Z"/><path class="cls-1" d="m223.91,56.05h25.16v7.4h-8.51v44.4h-8.14v-44.4h-8.51v-7.4Z"/><path class="cls-1" d="m261.14,56.05v39.96c0,3.7,1.63,5.03,4.22,5.03s4.22-1.33,4.22-5.03v-39.96h7.7v39.45c0,8.29-4.14,13.02-12.14,13.02s-12.14-4.74-12.14-13.02v-39.45h8.14Z"/><path class="cls-1" d="m291.7,79.06h10.51v7.4h-10.51v21.39h-8.14v-51.8h21.54v7.4h-13.4v15.62Z"/><path class="cls-1" d="m309.75,56.05h8.14v51.8h-8.14v-51.8Z"/><path class="cls-1" d="m336.76,56.05h12.88c8.14,0,12.14,4.51,12.14,12.8v26.2c0,8.29-4,12.8-12.14,12.8h-12.88v-51.8Zm8.14,7.4v37h4.59c2.59,0,4.14-1.33,4.14-5.03v-26.94c0-3.7-1.55-5.03-4.14-5.03h-4.59Z"/><path class="cls-1" d="m375.83,77.88h11.17v7.4h-11.17v15.17h14.06v7.4h-22.2v-51.8h22.2v7.4h-14.06v14.43Z"/><path class="cls-1" d="m395.66,56.05h8.14v44.4h13.4v7.4h-21.54v-51.8Z"/><path class="cls-1" d="m421.49,56.05h8.14v44.4h13.4v7.4h-21.54v-51.8Z"/><path class="cls-1" d="m455.46,77.88h11.17v7.4h-11.17v15.17h14.06v7.4h-22.2v-51.8h22.2v7.4h-14.06v14.43Z"/><path class="cls-1" d="m504.52,107.85c-.44-1.33-.74-2.15-.74-6.36v-8.14c0-4.81-1.63-6.59-5.33-6.59h-2.81v21.09h-8.14v-51.8h12.29c8.44,0,12.06,3.92,12.06,11.92v4.07c0,5.33-1.7,8.73-5.33,10.43v.15c4.07,1.7,5.4,5.55,5.4,10.95v7.99c0,2.52.07,4.37.89,6.29h-8.29Zm-8.88-44.4v15.91h3.18c3.03,0,4.88-1.33,4.88-5.48v-5.11c0-3.7-1.26-5.33-4.14-5.33h-3.92Z"/><path class="cls-1" d="m517.98,56.05h8.14v51.8h-8.14v-51.8Z"/><path class="cls-1" d="m543.74,55.46c7.92,0,11.99,4.74,11.99,13.02v1.63h-7.7v-2.15c0-3.7-1.48-5.11-4.07-5.11s-4.07,1.41-4.07,5.11,1.63,6.59,6.96,11.25c6.81,5.99,8.95,10.29,8.95,16.21,0,8.29-4.14,13.02-12.14,13.02s-12.14-4.74-12.14-13.02v-3.18h7.7v3.7c0,3.7,1.63,5.03,4.22,5.03s4.22-1.33,4.22-5.03-1.63-6.59-6.96-11.25c-6.81-5.99-8.96-10.29-8.96-16.21,0-8.29,4.07-13.02,11.99-13.02Z"/><path class="cls-1" d="m587.54,107.85h-8.21l-1.41-9.4h-9.99l-1.41,9.4h-7.47l8.29-51.8h11.92l8.29,51.8Zm-18.58-16.43h7.84l-3.85-26.2h-.15l-3.85,26.2Z"/><path class="cls-1" d="m592.06,56.05h8.14v51.8h-8.14v-51.8Z"/><path class="cls-1" d="m615,77.88h11.17v7.4h-11.17v15.17h14.06v7.4h-22.2v-51.8h22.2v7.4h-14.06v14.43Z"/></g><path class="cls-1" d="m31.01,88.29s-.81,7.05-2.28,9.39c-1.47,2.35-3.93,5.42-5.15,6.94-1.16,1.45-2.49,2.17-2.49,2.17,0,0-.34.46-.84,1.08h56.8c-.04-.52-.08-1.11-.11-1.83-.13-3.29-.66-6.45-1.05-7.9s-1.84-6.45-1.84-6.45c-1.18-.53-2.37-2.5-3.68-3.42-1.32-.92-2.37-3.29-3.55-5.26s-1.05-3.29-2.63-4.34c-1.58-1.05-1.58-2.24-1.58-2.76s.39-1.05.26-2.9c-.13-1.84-.13-3.03-.39-5.4-.26-2.37-.92-3.55-2.11-5.79s-1.58-4.87-2.9-6.19c-1.32-1.32-1.05-2.16-1.69-1.97-2.15.64-2.15-.03-3.68.38-2.6.7-6.01,1.39-6.97,1.18-.67-.15-4.11-.48-3.41-2.4-1.25,1.45-2.44.91-2.32.36.26-1.17,2.57-4.28,5.87-5.35-1.04-.18-1.45-.26-2.14-.43-.69-.16-3.75-.86-5.13-1.84-.74-.53-1.24-2.72-1.48-4.38-.14-.95.56-1.48,1.88-1.88,1.32-.39,4.87-1.18,6.19-1.71,1.32-.53,2.11-.79,2.24-1.97.13-1.18.79-1.45,1.45-1.97.66-.53,1.45-.66,2.76-1.71,1.32-1.05,3.16-1.58,6.05-1.71,2.9-.13,6.97.53,9.21,1.58,2.24,1.05,2.24,1.84,3.29,3.55,1.05,1.71,3.29,2.76,4.08,4.08.79,1.32,6.32,8.29,7.37,9.48,1.05,1.18,2.5,2.37,3.82,3.29.89.62,2.2.89,3.45,1.24v-24.68L44.15,0,0,28.76v42.27c1.5-.43,2.79-.9,3.63-1.39,2.79-1.61,6.09-4.4,7.56-5.65,1.47-1.25,4.26-3.52,4.62-4.18.37-.66.95-1.83,1.17-2.72.22-.88-1.39-1.39-.37-2.64s1.69-2.13,2.05-3.01c.37-.88,1.03-2.2,1.39-2.94.37-.73,1.03-2.79.66-4.62-.37-1.83.73-1.83,1.54-.73s1.54,3.16,2.05,4.4.51,2.94.51,2.94l1.54-.37.73,1.39s-.51.44.95,1.03c1.47.59,2.64.29,3.74.88,1.1.59,1.98.95,2.94,1.61.95.66,1.17,1.17,1.54,1.91.37.73.66,1.39,1.32,1.76.66.37,3.23.88,4.77,1.25s4.4.73,5.72,1.03c1.32.29,1.39,1.61.88,2.79-.51,1.17-1.03,1.61-1.32,2.28-.29.66-.81.81-.81.81,0,0,.15,1.32-1.25,2.13-1.39.81-2.42,1.61-4.55,2.05-2.13.44-4.77,1.25-5.87,1.61-1.1.37-2.72,1.1-2.2,3.08s.95,3.45,1.69,4.18c.73.73-1.76.07-1.76.07,0,0-1.17,6.31-.37,8.88.81,2.57-1.54-.59-1.54-.59Z"/></svg>