<?xml version="1.0" encoding="utf-8"?>
<!-- Generator: Adobe Illustrator 27.2.0, SVG Export Plug-In . SVG Version: 6.00 Build 0)  -->
<svg version="1.1" id="Livello_1" xmlns="http://www.w3.org/2000/svg" xmlns:xlink="http://www.w3.org/1999/xlink" x="0px" y="0px"
	 viewBox="0 0 406.19 172.79" style="enable-background:new 0 0 406.19 172.79;" xml:space="preserve">
<style type="text/css">
	.st0{fill:#1D1D1B;}
	.st1{fill:#EC008C;}
</style>
<g>
	<path class="st0" d="M126.33,43.86h-3.13l-0.85-4.62h-5.58l-0.82,4.62h-3.09l5.17-24h2.99L126.33,43.86L126.33,43.86z
		 M121.84,36.65l-2.35-12.34l-2.21,12.34H121.84z"/>
	<path class="st0" d="M130.89,43.86h-2.75v-24h2.75V43.86z"/>
	<path class="st0" d="M136.9,43.86h-2.75v-24h2.75V43.86z"/>
	<path class="st0" d="M149.52,38.59c0,1.16,0,2.01-0.31,2.89c-0.99,2.69-3.64,2.69-4.49,2.69c-1.02,0-3.37-0.14-4.35-2.62
		c-0.31-0.82-0.44-1.16-0.44-7.99c0-3.64,0.31-6.97,4.69-6.97c1.09,0,4.22,0,4.76,3.71c0.14,0.85,0.14,1.33,0.14,5.61h-6.83
		c0,1.33-0.03,3.06,0.03,3.67c0.07,0.65,0.2,2.41,2.14,2.41s2.14-1.67,2.14-3.4H149.52L149.52,38.59z M146.97,33.69v-2.11
		c-0.03-0.92-0.07-2.92-2.11-2.92c-1.39,0-1.8,0.88-1.97,1.43c-0.2,0.65-0.2,1.19-0.2,3.6H146.97z"/>
	<path class="st0" d="M157.81,43.86h-3.09l-3.64-17h2.96l2.24,13.9l2.48-13.9h2.92L157.81,43.86L157.81,43.86z"/>
	<path class="st0" d="M172.57,40.25c0,2.65,0.1,3.03,0.82,3.6h-3.33v-2.04c-0.37,0.75-1.19,2.35-3.5,2.35
		c-0.78,0-1.46-0.17-2.04-0.51c-1.6-0.95-1.77-2.58-1.77-3.84c0-2.75,1.09-3.64,2.86-4.86c2.58-1.73,2.86-1.9,4.28-3.23
		c0-1.39,0-2.99-2.07-2.99s-2.04,1.43-2.04,2.45c0,0.51,0.03,0.88,0.07,1.26h-2.48c-0.03-0.71-0.03-2.55,0.24-3.4
		c0.85-2.48,3.74-2.48,4.49-2.48c1.22,0,2.45,0.2,3.43,1.26c1.05,1.09,1.05,2,1.05,4.32v8.12L172.57,40.25z M169.88,34.16
		c-0.78,0.75-0.92,0.85-2.24,1.84c-1.22,0.95-2.14,1.67-2.14,3.64c0,0.75,0,2.52,1.84,2.52c0.51,0,1.02-0.17,1.46-0.51
		c0.99-0.75,1.09-1.9,1.09-3.26v-4.22L169.88,34.16z"/>
	<path class="st0" d="M192.8,43.86h-2.75V32.74c0-1.5-0.03-2.14-0.17-2.65c-0.24-0.75-0.85-1.43-1.97-1.43
		c-2.18,0-2.18,2.28-2.18,4.04v11.15h-2.75V32.73c0-2.28,0-4.08-2.11-4.08s-2.21,2.14-2.21,4.11v11.08h-2.75v-17h2.58v1.7
		c0.51-0.68,1.53-2.01,3.64-2.01s2.96,1.33,3.33,2.01c0.54-0.71,1.46-2.01,3.54-2.01c0.34,0,1.6,0,2.65,1.05
		c1.16,1.16,1.16,2.41,1.16,5.17v11.08L192.8,43.86z"/>
	<path class="st0" d="M205.41,38.59c0,1.16,0,2.01-0.31,2.89c-0.99,2.69-3.64,2.69-4.49,2.69c-1.02,0-3.37-0.14-4.35-2.62
		c-0.31-0.82-0.44-1.16-0.44-7.99c0-3.64,0.31-6.97,4.69-6.97c1.09,0,4.22,0,4.76,3.71c0.14,0.85,0.14,1.33,0.14,5.61h-6.83
		c0,1.33-0.03,3.06,0.03,3.67c0.07,0.65,0.2,2.41,2.14,2.41s2.14-1.67,2.14-3.4H205.41L205.41,38.59z M202.86,33.69v-2.11
		c-0.03-0.92-0.07-2.92-2.11-2.92c-1.39,0-1.8,0.88-1.97,1.43c-0.2,0.65-0.2,1.19-0.2,3.6H202.86z"/>
	<path class="st0" d="M218.23,43.86h-2.75V32.78c0-2.45,0-4.08-2.01-4.08c-2.28,0-2.28,2.31-2.28,4.18v10.98h-2.72v-17h2.58v1.56
		c0.51-0.61,1.56-1.87,3.64-1.87c3.54,0,3.54,2.99,3.54,5.34C218.23,31.89,218.23,43.86,218.23,43.86z"/>
	<path class="st0" d="M227.58,28.9h-2.48v10.81c0,1.09,0.1,2.18,1.56,2.18c0.44,0,0.68-0.07,0.95-0.14v2.21
		c-0.37,0.1-0.78,0.2-1.5,0.2c-2.38,0-3.13-0.82-3.47-1.6s-0.34-1.12-0.34-4.25v-9.42h-2.04v-2.07h2.11v-4.56h2.72v4.56h2.48
		L227.58,28.9L227.58,28.9z"/>
	<path class="st0" d="M238.66,41.14c-0.27,1.09-0.95,3.03-4.49,3.03c-1.67,0-3.3-0.54-4.08-1.97c-0.65-1.16-0.68-2.14-0.68-6.39
		c0-2.35,0.07-5.03,0.37-6.22c0.27-1.02,1.02-3.03,4.49-3.03c2.07,0,3.47,0.75,4.18,2.21c0.58,1.19,0.58,1.7,0.58,6.8
		C239.03,36.86,238.96,39.99,238.66,41.14L238.66,41.14z M236.14,31.21c-0.03-0.99-0.24-2.41-1.84-2.41c-2.04,0-2.04,1.67-2.04,5.17
		c0,0.51,0,3.81,0.03,4.96c0.03,1.5,0.07,3.13,1.84,3.13c2.04,0,2.04-1.8,2.04-6.53C236.17,34.1,236.17,32.1,236.14,31.21z"/>
	<path class="st1" d="M113.65,56.05h8.14v51.8h-8.14V56.05z"/>
	<path class="st1" d="M138.29,56.05h25.16v7.4h-8.51v44.4h-8.14v-44.4h-8.51L138.29,56.05L138.29,56.05z"/>
	<path class="st1" d="M191.28,107.86h-8.21l-1.41-9.4h-9.99l-1.41,9.4h-7.47l8.29-51.8H183L191.28,107.86L191.28,107.86z
		 M172.7,91.43h7.84l-3.85-26.2h-0.15l-3.85,26.2L172.7,91.43z"/>
	<path class="st1" d="M212.81,107.86c-0.44-1.33-0.74-2.15-0.74-6.36v-8.14c0-4.81-1.63-6.59-5.33-6.59h-2.81v21.09h-8.14v-51.8
		h12.28c8.44,0,12.06,3.92,12.06,11.92v4.07c0,5.33-1.7,8.73-5.33,10.43v0.15c4.07,1.7,5.4,5.55,5.4,10.95v7.99
		c0,2.52,0.07,4.37,0.89,6.29h-8.29H212.81z M203.93,63.46v15.91h3.18c3.03,0,4.88-1.33,4.88-5.48v-5.11c0-3.7-1.26-5.33-4.14-5.33
		h-3.92V63.46z"/>
	<path class="st1" d="M223.91,56.05h25.16v7.4h-8.51v44.4h-8.14v-44.4h-8.51L223.91,56.05L223.91,56.05z"/>
	<path class="st1" d="M261.13,56.05v39.96c0,3.7,1.63,5.03,4.22,5.03s4.22-1.33,4.22-5.03V56.05h7.7V95.5
		c0,8.29-4.14,13.02-12.14,13.02s-12.14-4.74-12.14-13.02V56.05H261.13z"/>
	<path class="st1" d="M291.69,79.07h10.51v7.4h-10.51v21.39h-8.14v-51.8h21.54v7.4h-13.4v15.62V79.07z"/>
	<path class="st1" d="M309.75,56.05h8.14v51.8h-8.14V56.05z"/>
	<path class="st1" d="M113.89,120.39h12.88c8.14,0,12.14,4.51,12.14,12.8v26.2c0,8.29-4,12.8-12.14,12.8h-12.88
		C113.89,172.19,113.89,120.39,113.89,120.39z M122.03,127.79v37h4.59c2.59,0,4.14-1.33,4.14-5.03v-26.94c0-3.7-1.55-5.03-4.14-5.03
		C126.62,127.79,122.03,127.79,122.03,127.79z"/>
	<path class="st1" d="M152.96,142.22h11.17v7.4h-11.17v15.17h14.06v7.4h-22.2v-51.8h22.2v7.4h-14.06V142.22L152.96,142.22z"/>
	<path class="st1" d="M172.79,120.39h8.14v44.4h13.4v7.4h-21.54L172.79,120.39L172.79,120.39z"/>
	<path class="st1" d="M198.62,120.39h8.14v44.4h13.4v7.4h-21.54V120.39z"/>
	<path class="st1" d="M232.59,142.22h11.17v7.4h-11.17v15.17h14.06v7.4h-22.2v-51.8h22.2v7.4h-14.06V142.22L232.59,142.22z"/>
	<path class="st1" d="M281.65,172.2c-0.44-1.33-0.74-2.15-0.74-6.36v-8.14c0-4.81-1.63-6.59-5.33-6.59h-2.81v21.09h-8.14v-51.8
		h12.29c8.44,0,12.06,3.92,12.06,11.92v4.07c0,5.33-1.7,8.73-5.33,10.43v0.15c4.07,1.7,5.4,5.55,5.4,10.95v7.99
		c0,2.52,0.07,4.37,0.89,6.29H281.65L281.65,172.2z M272.77,127.8v15.91h3.18c3.03,0,4.88-1.33,4.88-5.48v-5.11
		c0-3.7-1.26-5.33-4.14-5.33h-3.92L272.77,127.8z"/>
	<path class="st1" d="M295.11,120.39h8.14v51.8h-8.14V120.39z"/>
	<path class="st1" d="M320.87,119.8c7.92,0,11.99,4.74,11.99,13.02v1.63h-7.7v-2.15c0-3.7-1.48-5.11-4.07-5.11s-4.07,1.41-4.07,5.11
		s1.63,6.59,6.96,11.25c6.81,5.99,8.95,10.29,8.95,16.21c0,8.29-4.14,13.02-12.14,13.02s-12.14-4.74-12.14-13.02v-3.18h7.7v3.7
		c0,3.7,1.63,5.03,4.22,5.03s4.22-1.33,4.22-5.03s-1.63-6.59-6.96-11.25c-6.81-5.99-8.96-10.29-8.96-16.21
		c0-8.29,4.07-13.02,11.99-13.02H320.87z"/>
	<path class="st1" d="M364.67,172.2h-8.21l-1.41-9.4h-9.99l-1.41,9.4h-7.47l8.29-51.8h11.92l8.29,51.8H364.67z M346.09,155.77h7.84
		l-3.85-26.2h-0.15l-3.85,26.2H346.09z"/>
	<path class="st1" d="M369.19,120.39h8.14v51.8h-8.14V120.39z"/>
	<path class="st1" d="M392.13,142.22h11.17v7.4h-11.17v15.17h14.06v7.4h-22.2v-51.8h22.2v7.4h-14.06V142.22L392.13,142.22z"/>
</g>
<path class="st1" d="M31.01,88.29c0,0-0.81,7.05-2.28,9.39c-1.47,2.35-3.93,5.42-5.15,6.94c-1.16,1.45-2.49,2.17-2.49,2.17
	s-0.34,0.46-0.84,1.08h56.8c-0.04-0.52-0.08-1.11-0.11-1.83c-0.13-3.29-0.66-6.45-1.05-7.9s-1.84-6.45-1.84-6.45
	c-1.18-0.53-2.37-2.5-3.68-3.42c-1.32-0.92-2.37-3.29-3.55-5.26s-1.05-3.29-2.63-4.34c-1.58-1.05-1.58-2.24-1.58-2.76
	s0.39-1.05,0.26-2.9c-0.13-1.84-0.13-3.03-0.39-5.4s-0.92-3.55-2.11-5.79s-1.58-4.87-2.9-6.19s-1.05-2.16-1.69-1.97
	c-2.15,0.64-2.15-0.03-3.68,0.38c-2.6,0.7-6.01,1.39-6.97,1.18c-0.67-0.15-4.11-0.48-3.41-2.4c-1.25,1.45-2.44,0.91-2.32,0.36
	c0.26-1.17,2.57-4.28,5.87-5.35c-1.04-0.18-1.45-0.26-2.14-0.43c-0.69-0.16-3.75-0.86-5.13-1.84c-0.74-0.53-1.24-2.72-1.48-4.38
	c-0.14-0.95,0.56-1.48,1.88-1.88c1.32-0.39,4.87-1.18,6.19-1.71s2.11-0.79,2.24-1.97s0.79-1.45,1.45-1.97
	c0.66-0.53,1.45-0.66,2.76-1.71c1.32-1.05,3.16-1.58,6.05-1.71c2.9-0.13,6.97,0.53,9.21,1.58c2.24,1.05,2.24,1.84,3.29,3.55
	c1.05,1.71,3.29,2.76,4.08,4.08c0.79,1.32,6.32,8.29,7.37,9.48c1.05,1.18,2.5,2.37,3.82,3.29c0.89,0.62,2.2,0.89,3.45,1.24V28.77
	L44.15,0L0,28.76v42.27c1.5-0.43,2.79-0.9,3.63-1.39c2.79-1.61,6.09-4.4,7.56-5.65s4.26-3.52,4.62-4.18
	c0.37-0.66,0.95-1.83,1.17-2.72c0.22-0.88-1.39-1.39-0.37-2.64s1.69-2.13,2.05-3.01c0.37-0.88,1.03-2.2,1.39-2.94
	c0.37-0.73,1.03-2.79,0.66-4.62c-0.37-1.83,0.73-1.83,1.54-0.73s1.54,3.16,2.05,4.4s0.51,2.94,0.51,2.94l1.54-0.37l0.73,1.39
	c0,0-0.51,0.44,0.95,1.03c1.47,0.59,2.64,0.29,3.74,0.88s1.98,0.95,2.94,1.61c0.95,0.66,1.17,1.17,1.54,1.91
	c0.37,0.73,0.66,1.39,1.32,1.76s3.23,0.88,4.77,1.25s4.4,0.73,5.72,1.03c1.32,0.29,1.39,1.61,0.88,2.79
	c-0.51,1.17-1.03,1.61-1.32,2.28c-0.29,0.66-0.81,0.81-0.81,0.81s0.15,1.32-1.25,2.13c-1.39,0.81-2.42,1.61-4.55,2.05
	s-4.77,1.25-5.87,1.61c-1.1,0.37-2.72,1.1-2.2,3.08s0.95,3.45,1.69,4.18c0.73,0.73-1.76,0.07-1.76,0.07s-1.17,6.31-0.37,8.88
	c0.81,2.57-1.54-0.59-1.54-0.59L31.01,88.29z"/>
</svg>
